<?xml version="1.0" encoding="UTF-8" standalone="no"?>
<!DOCTYPE svg PUBLIC "-//W3C//DTD SVG 1.1//EN" "http://www.w3.org/Graphics/SVG/1.1/DTD/svg11.dtd">
<svg xmlns="http://www.w3.org/2000/svg" xmlns:xl="http://www.w3.org/1999/xlink" version="1.1" viewBox="-3 -3 191 38" width="191pt" height="38pt" xmlns:dc="http://purl.org/dc/elements/1.1/"><metadata> Produced by OmniGraffle 6.6.2 <dc:date>2018-11-27 18:05:44 +0000</dc:date></metadata><defs/><g stroke="none" stroke-opacity="1" stroke-dasharray="none" fill="none" fill-opacity="1"><title>Canvas 1</title><g><title>Layer 1</title><path d="M 16 0 L 169 0 C 177.83656 541083e-21 185 7.163444 185 16 L 185 16 C 185 24.836556 177.83656 32 169 32 L 16 32 C 7.163444 32 1082166e-21 24.836556 0 16 L 0 16 C 1082166e-21 7.163444 7.163444 30116307e-22 16 35527137e-22 Z" fill="#a5a5a5"/><path d="M 16 0 L 169 0 C 177.83656 541083e-21 185 7.163444 185 16 L 185 16 C 185 24.836556 177.83656 32 169 32 L 16 32 C 7.163444 32 1082166e-21 24.836556 0 16 L 0 16 C 1082166e-21 7.163444 7.163444 30116307e-22 16 35527137e-22 Z" stroke="#666" stroke-linecap="round" stroke-linejoin="round" stroke-width="3"/><path d="M 16 0 L 111 0 C 119.836556 541083e-21 127 7.163444 127 16 L 127 16 C 127 24.836556 119.836556 32 111 32 L 16 32 C 7.163444 32 1082166e-21 24.836556 0 16 L 0 16 C 1082166e-21 7.163444 7.163444 30116307e-22 16 35527137e-22 Z" fill="#6b7ca5"/><path d="M 16 0 L 111 0 C 119.836556 541083e-21 127 7.163444 127 16 L 127 16 C 127 24.836556 119.836556 32 111 32 L 16 32 C 7.163444 32 1082166e-21 24.836556 0 16 L 0 16 C 1082166e-21 7.163444 7.163444 30116307e-22 16 35527137e-22 Z" stroke="#666" stroke-linecap="round" stroke-linejoin="round" stroke-width="3"/></g></g></svg>
